<mxfile host="65bd71144e">
    <diagram id="prtHgNgQTEPvFCAcTncT" name="Page-1">
        <mxGraphModel dx="1167" dy="594" grid="1" gridSize="10" guides="1" tooltips="1" connect="1" arrows="1" fold="1" page="1" pageScale="1" pageWidth="827" pageHeight="1169" math="0" shadow="0">
            <root>
                <mxCell id="0"/>
                <mxCell id="1" parent="0"/>
                <mxCell id="rZJUh6dzIXkIHwQzjAmM-1" value="fetch" style="rounded=1;whiteSpace=wrap;html=1;" parent="1" vertex="1">
                    <mxGeometry x="410" y="270" width="140" height="60" as="geometry"/>
                </mxCell>
                <mxCell id="rZJUh6dzIXkIHwQzjAmM-2" value="decode" style="rounded=1;whiteSpace=wrap;html=1;" parent="1" vertex="1">
                    <mxGeometry x="551.5" y="270" width="58.5" height="60" as="geometry"/>
                </mxCell>
                <mxCell id="rZJUh6dzIXkIHwQzjAmM-3" value="integer rename" style="rounded=1;whiteSpace=wrap;html=1;" parent="1" vertex="1">
                    <mxGeometry x="490" y="210" width="120" height="60" as="geometry"/>
                </mxCell>
                <mxCell id="rZJUh6dzIXkIHwQzjAmM-13" value="integer issue que" style="rounded=1;whiteSpace=wrap;html=1;" parent="1" vertex="1">
                    <mxGeometry x="611.5" y="210" width="120" height="60" as="geometry"/>
                </mxCell>
                <mxCell id="rZJUh6dzIXkIHwQzjAmM-14" value="load-store issue que" style="rounded=1;whiteSpace=wrap;html=1;" parent="1" vertex="1">
                    <mxGeometry x="610" y="330" width="120" height="60" as="geometry"/>
                </mxCell>
                <mxCell id="rZJUh6dzIXkIHwQzjAmM-15" value="float rename" style="rounded=1;whiteSpace=wrap;html=1;" parent="1" vertex="1">
                    <mxGeometry x="490" y="330" width="120" height="60" as="geometry"/>
                </mxCell>
                <mxCell id="rZJUh6dzIXkIHwQzjAmM-16" value="float issue que" style="rounded=1;whiteSpace=wrap;html=1;" parent="1" vertex="1">
                    <mxGeometry x="610" y="270" width="120" height="60" as="geometry"/>
                </mxCell>
                <mxCell id="rZJUh6dzIXkIHwQzjAmM-21" value="&lt;div style=&quot;font-size: 12px&quot;&gt;integer block&lt;/div&gt;" style="rounded=1;whiteSpace=wrap;html=1;align=center;fontSize=12;labelPosition=center;verticalLabelPosition=middle;verticalAlign=top;" parent="1" vertex="1">
                    <mxGeometry x="731.5" y="210" width="120" height="60" as="geometry"/>
                </mxCell>
                <mxCell id="rZJUh6dzIXkIHwQzjAmM-22" value="commit" style="rounded=1;whiteSpace=wrap;html=1;" parent="1" vertex="1">
                    <mxGeometry x="850" y="210" width="70" height="210" as="geometry"/>
                </mxCell>
                <mxCell id="3" value="Master&lt;br&gt;instruction Ports" style="rounded=1;whiteSpace=wrap;html=1;" parent="1" vertex="1">
                    <mxGeometry x="380" y="470" width="100" height="40" as="geometry"/>
                </mxCell>
                <mxCell id="4" value="Master &lt;br&gt;data Ports" style="rounded=1;whiteSpace=wrap;html=1;" parent="1" vertex="1">
                    <mxGeometry x="737.5" y="470" width="100" height="40" as="geometry"/>
                </mxCell>
                <mxCell id="5" value="&lt;div style=&quot;font-size: 12px&quot;&gt;integer block&lt;/div&gt;" style="rounded=1;whiteSpace=wrap;html=1;align=center;fontSize=12;labelPosition=center;verticalLabelPosition=middle;verticalAlign=top;" parent="1" vertex="1">
                    <mxGeometry x="730" y="330" width="120" height="90" as="geometry"/>
                </mxCell>
                <mxCell id="6" value="&lt;div style=&quot;font-size: 12px&quot;&gt;float&lt;span&gt;&amp;nbsp;block&lt;/span&gt;&lt;/div&gt;" style="rounded=1;whiteSpace=wrap;html=1;align=center;fontSize=12;labelPosition=center;verticalLabelPosition=middle;verticalAlign=top;" parent="1" vertex="1">
                    <mxGeometry x="731.5" y="270" width="120" height="60" as="geometry"/>
                </mxCell>
                <mxCell id="11" value="" style="html=1;shadow=0;dashed=0;align=center;verticalAlign=middle;shape=mxgraph.arrows2.arrow;dy=0.59;dx=19;direction=north;notch=0;rotation=-180;" parent="1" vertex="1">
                    <mxGeometry x="402.5" y="330" width="37.5" height="140" as="geometry"/>
                </mxCell>
                <mxCell id="13" value="IBU" style="rounded=1;whiteSpace=wrap;html=1;" parent="1" vertex="1">
                    <mxGeometry x="550" y="510" width="120" height="60" as="geometry"/>
                </mxCell>
                <mxCell id="14" value="" style="html=1;shadow=0;dashed=0;align=center;verticalAlign=middle;shape=mxgraph.arrows2.bendArrow;dy=5.5;dx=22;notch=0;arrowHead=37;rounded=0;rotation=0;portConstraintRotation=0;flipH=0;flipV=1;" parent="1" vertex="1">
                    <mxGeometry x="420" y="510" width="130" height="50" as="geometry"/>
                </mxCell>
                <mxCell id="19" value="Cache" style="rounded=1;whiteSpace=wrap;html=1;" parent="1" vertex="1">
                    <mxGeometry x="410" y="290" width="50" height="40" as="geometry"/>
                </mxCell>
                <mxCell id="20" value="Cache" style="rounded=1;whiteSpace=wrap;html=1;" parent="1" vertex="1">
                    <mxGeometry x="762.5" y="380" width="50" height="40" as="geometry"/>
                </mxCell>
                <mxCell id="23" value="memory system" style="rounded=1;whiteSpace=wrap;html=1;" parent="1" vertex="1">
                    <mxGeometry x="540" y="610" width="140" height="100" as="geometry"/>
                </mxCell>
                <mxCell id="21" value="Slave&lt;br&gt;Ports" style="rounded=1;whiteSpace=wrap;html=1;" parent="1" vertex="1">
                    <mxGeometry x="560" y="610" width="100" height="40" as="geometry"/>
                </mxCell>
                <mxCell id="24" value="" style="html=1;shadow=0;dashed=0;align=center;verticalAlign=middle;shape=mxgraph.arrows2.arrow;dy=0.59;dx=19;direction=north;notch=0;rotation=-180;" vertex="1" parent="1">
                    <mxGeometry x="768.75" y="420" width="37.5" height="50" as="geometry"/>
                </mxCell>
                <mxCell id="25" value="" style="html=1;shadow=0;dashed=0;align=center;verticalAlign=middle;shape=mxgraph.arrows2.bendArrow;dy=5.5;dx=22;notch=0;arrowHead=37;rounded=0;rotation=0;portConstraintRotation=0;flipH=1;flipV=1;" vertex="1" parent="1">
                    <mxGeometry x="670" y="510" width="120" height="50" as="geometry"/>
                </mxCell>
                <mxCell id="26" value="" style="html=1;shadow=0;dashed=0;align=center;verticalAlign=middle;shape=mxgraph.arrows2.arrow;dy=0.59;dx=19;direction=north;notch=0;rotation=-180;" vertex="1" parent="1">
                    <mxGeometry x="591.25" y="570" width="37.5" height="40" as="geometry"/>
                </mxCell>
            </root>
        </mxGraphModel>
    </diagram>
</mxfile>